<svg width="41" height="40" viewBox="0 0 41 40" fill="none" xmlns="http://www.w3.org/2000/svg">
<path d="M29.2579 13.5462C29.0955 13.6722 26.228 15.2879 26.228 18.8807C26.228 23.0363 29.8768 24.5065 29.986 24.5429C29.9692 24.6325 29.4063 26.5563 28.0622 28.5165C26.8637 30.2414 25.6119 31.9636 23.7078 31.9636C21.8036 31.9636 21.3135 30.8575 19.1153 30.8575C16.9731 30.8575 16.2114 32 14.4696 32C12.7279 32 11.5125 30.4038 10.1152 28.4436C8.49663 26.1418 7.1889 22.5659 7.1889 19.1719C7.1889 13.7282 10.7285 10.8411 14.212 10.8411C16.063 10.8411 17.6059 12.0564 18.7681 12.0564C19.8742 12.0564 21.5991 10.7683 23.705 10.7683C24.503 10.7683 27.3705 10.8411 29.2579 13.5462ZM22.7053 8.46365C23.5761 7.43034 24.1922 5.9966 24.1922 4.56286C24.1922 4.36404 24.1754 4.16242 24.139 4C22.7221 4.05321 21.0363 4.94369 20.0198 6.12261C19.2217 7.0299 18.4768 8.46365 18.4768 9.91699C18.4768 10.1354 18.5132 10.3538 18.53 10.4238C18.6196 10.4406 18.7653 10.4602 18.9109 10.4602C20.1822 10.4602 21.7812 9.60896 22.7053 8.46365Z" fill="white"/>
</svg>
