<svg width="33" height="40" viewBox="0 0 33 40" fill="none" xmlns="http://www.w3.org/2000/svg">
<path d="M22.7841 7C24.4422 7 26.0256 7.65868 27.2034 8.82678C28.3748 10.0046 29.0334 11.5913 29.0334 13.2493V26.7507C29.0334 30.203 26.2365 33 22.7841 33H9.28279C7.62474 33 6.03806 32.3413 4.86023 31.17C3.69213 29.9921 3.03345 28.4087 3.03345 26.7507V13.2493C3.03345 11.5913 3.69213 10.0046 4.86023 8.82678C6.03806 7.65868 7.62474 7 9.28279 7H22.7841ZM17.4606 11.3343L16.0297 14.008L14.6085 11.3343C14.5436 11.2045 14.4366 11.0974 14.3068 11.0325C13.9498 10.8379 13.5021 10.9774 13.3074 11.3343L8.18721 20.9549C8.01848 21.2794 8.01848 21.6688 8.18721 21.9932L11.4319 28.0868C11.6266 28.4438 11.9998 28.6741 12.4151 28.6741H19.6541C20.0662 28.6741 20.4393 28.4438 20.6372 28.0868L23.8785 21.9932C24.0476 21.6688 24.0476 21.2794 23.8785 20.9549L18.7585 11.3343C18.6871 11.2045 18.5801 11.0974 18.4503 11.0325C18.0934 10.8379 17.6456 10.9774 17.4606 11.3343ZM18.4296 14.6533L21.921 21.2109C22.0119 21.3732 22.0119 21.5679 21.921 21.7301L19.3641 26.5323C19.2668 26.7107 19.0786 26.8243 18.8741 26.8243H13.1894C12.985 26.8243 12.7968 26.7107 12.6994 26.5323L10.1426 21.7301C10.0517 21.5679 10.0517 21.3732 10.1426 21.2109L13.6339 14.6533C13.6664 14.5884 13.715 14.5398 13.7799 14.4976C13.9681 14.41 14.1888 14.4749 14.2861 14.6533L14.9837 15.9772L12.9363 19.8189C12.8389 20.0071 12.7578 20.1953 12.6994 20.39L12.6929 20.4127L12.6605 20.5036C12.5696 20.8118 12.521 21.1363 12.521 21.477C12.521 23.4109 14.0979 24.9878 16.0318 24.9878C17.9754 24.9878 19.5426 23.4109 19.5426 21.477C19.5426 20.8443 19.3803 20.2505 19.0883 19.7476L18.1116 17.9175L17.0636 19.8838L17.4951 20.6885C17.6249 20.9319 17.6898 21.2012 17.6898 21.4705H17.6963V21.503C17.6801 22.4115 16.9435 23.1351 16.0318 23.1351C15.1135 23.1351 14.3737 22.3953 14.3737 21.477V21.4705C14.3737 21.3634 14.3834 21.2596 14.4062 21.146V21.1201C14.4191 21.0682 14.4354 21.013 14.4516 20.9643C14.4873 20.854 14.5295 20.7502 14.5846 20.6561V20.6496L16.0318 17.9338V17.9435L17.0798 15.9772L17.7774 14.6533C17.8196 14.5884 17.8683 14.5398 17.9332 14.4976C18.1116 14.41 18.3388 14.4749 18.4296 14.6533Z" fill="white"/>
</svg>
