<svg width="171" height="40" viewBox="0 0 171 40" fill="none" xmlns="http://www.w3.org/2000/svg">
<g clip-path="url(#clip0_1510_9742)">
<path d="M52.4725 19.064C53.0291 18.678 53.4802 18.205 53.8065 17.6645C54.2288 16.9792 54.4399 16.2167 54.4399 15.3866C54.4399 14.4021 54.2096 13.5045 53.7585 12.713C53.3075 11.9216 52.6453 11.2652 51.7911 10.7537C51.2825 10.4545 50.6491 10.2325 49.8909 10.0973C49.1424 9.97186 48.1251 9.9043 46.8583 9.9043H42.1078V29.7005H49.3247C51.1481 29.7005 52.7029 29.1503 53.9313 28.079C55.1693 26.9979 55.8027 25.637 55.8027 24.0444C55.8027 22.7704 55.4764 21.6797 54.8238 20.811C54.2768 20.0582 53.4802 19.4694 52.4725 19.064ZM50.6491 17.4714C50.0733 17.9637 49.2383 18.2146 48.1539 18.2146H45.1021V12.5779H47.9907C49.1807 12.5779 50.0733 12.8192 50.6587 13.3018C51.2345 13.7748 51.5129 14.4697 51.5129 15.4156C51.4937 16.3132 51.2153 16.9888 50.6491 17.4714ZM45.0925 20.9365H48.7297C50.0733 20.9365 51.1001 21.1971 51.7719 21.7086C52.4341 22.2106 52.7509 22.9344 52.7509 23.919C52.7509 24.9228 52.4245 25.6563 51.7431 26.1582C51.0522 26.6698 50.0061 26.9304 48.6337 26.9304H45.1021V20.9365H45.0925Z" fill="white"/>
<path d="M75.8603 12.7136H73.0196V15.9471H70.755H68.663H67.6456L64.133 24.489C64.0754 24.6338 63.9602 24.9427 63.797 25.4349C63.7011 25.7245 63.5955 26.0623 63.4708 26.4291C63.3556 26.0333 63.2596 25.6859 63.1636 25.3963C62.9621 24.7496 62.8853 24.5663 62.8566 24.489L59.4016 15.9471H56.2538L61.868 29.4501L59.4496 35.2027H62.3479L69.6803 18.4179H73.0296V26.6993C73.0296 27.8769 73.3076 28.7359 73.855 29.2571C74.4016 29.7687 75.3036 30.0389 76.5416 30.0389H78.0963V27.3074H76.619C76.3403 27.3074 76.1483 27.2495 76.033 27.124C75.9183 26.9889 75.8603 26.7572 75.8603 26.4291V18.4276H78.0963V15.9471H75.8603V12.7136Z" fill="white"/>
<path d="M86.4556 15.6184C84.3729 15.6184 82.6649 16.3037 81.3689 17.6453C80.0736 18.9869 79.4209 20.7629 79.4209 22.9249C79.4209 23.8419 79.5743 24.7299 79.8909 25.5599C80.1983 26.3997 80.6589 27.1429 81.2443 27.7799C81.9063 28.5038 82.7223 29.0636 83.6436 29.4593C84.5649 29.8454 85.5823 30.0481 86.6476 30.0481C87.9336 30.0481 89.1136 29.8068 90.1409 29.3242C91.1676 28.8416 92.1276 28.0887 92.9909 27.0753L93.1543 26.8823L91.0909 25.2125L90.9376 25.3959C90.3516 26.0715 89.6996 26.5927 88.9889 26.9402C88.2883 27.2877 87.5303 27.4614 86.7149 27.4614C85.4576 27.4614 84.4016 27.1043 83.5863 26.39C82.8276 25.7337 82.3963 24.9036 82.2809 23.8709H93.6056V23.4461C93.6056 21.1201 92.9429 19.2186 91.6376 17.7997C90.3136 16.3423 88.5763 15.6184 86.4556 15.6184ZM83.6049 19.1897C84.3823 18.5237 85.3329 18.1859 86.4269 18.1859C87.5016 18.1859 88.4323 18.514 89.1809 19.1703C89.8623 19.7687 90.2943 20.5409 90.4769 21.4675H82.2903C82.4536 20.5602 82.8949 19.7977 83.6049 19.1897Z" fill="white"/>
<path d="M109.325 12.4235C107.416 10.7537 104.594 9.9043 100.956 9.9043H96.7336V29.7005H100.956C104.594 29.7005 107.416 28.8511 109.325 27.1813C111.244 25.5019 112.224 23.0213 112.224 19.8072C112.224 16.5931 111.244 14.1126 109.325 12.4235ZM101.331 26.94H99.7376V12.6841H101.331C103.941 12.6841 105.918 13.2825 107.233 14.4794C108.538 15.6665 109.191 17.4522 109.191 19.8169C109.191 22.1623 108.529 23.9576 107.233 25.1448C105.928 26.332 103.941 26.94 101.331 26.94Z" fill="white"/>
<path d="M125.093 17.6842C124.565 17.1244 123.96 16.6707 123.289 16.3329C122.416 15.8986 121.446 15.6863 120.4 15.6863C118.327 15.6863 116.638 16.3426 115.371 17.6456C114.104 18.9486 113.471 20.6763 113.471 22.7804C113.471 23.7553 113.634 24.6625 113.951 25.4926C114.268 26.3227 114.757 27.0852 115.39 27.7512C116.053 28.4365 116.83 28.9673 117.684 29.3341C118.538 29.6913 119.45 29.8746 120.4 29.8746C121.466 29.8746 122.425 29.6719 123.25 29.2665C123.874 28.9577 124.44 28.533 124.92 27.9925V29.7105H127.742V15.9469H125.093V17.6842ZM123.826 19.5374C124.632 20.3867 125.045 21.4871 125.045 22.8094C125.045 24.1413 124.632 25.2417 123.826 26.0911C123.02 26.9308 121.974 27.3555 120.717 27.3555C119.46 27.3555 118.414 26.9308 117.608 26.0911C116.801 25.2513 116.388 24.151 116.388 22.8094C116.388 21.4774 116.801 20.3771 117.608 19.5277C118.414 18.688 119.46 18.2633 120.717 18.2633C121.974 18.2633 123.02 18.688 123.826 19.5374Z" fill="white"/>
<path d="M136.427 15.6863C135.66 15.6863 134.93 15.8407 134.258 16.1495C133.75 16.3812 133.25 16.7093 132.771 17.134V15.9469H129.968V29.7009H132.771V22.1048C132.771 20.8018 133.049 19.8173 133.586 19.1803C134.114 18.5529 134.94 18.2343 136.014 18.2343C136.964 18.2343 137.636 18.5143 138.068 19.103C138.51 19.7015 138.74 20.6763 138.74 22.0083V29.7105H141.562V21.7766C141.562 19.9041 141.101 18.4177 140.189 17.3367C139.278 16.2461 138.01 15.6863 136.427 15.6863Z" fill="white"/>
<path d="M152.876 26.0714C152.522 26.525 152.099 26.8725 151.6 27.0945C151.101 27.3262 150.516 27.442 149.854 27.442C148.634 27.442 147.665 27.0269 146.907 26.1679C146.149 25.3185 145.765 24.1892 145.765 22.8283C145.765 21.4674 146.158 20.3381 146.926 19.4694C147.694 18.6008 148.654 18.1761 149.863 18.1761C150.477 18.1761 151.034 18.2822 151.514 18.485C151.984 18.6876 152.416 19.0062 152.79 19.4405L152.972 19.6528L154.806 17.5294L154.623 17.3653C153.98 16.7766 153.26 16.3326 152.474 16.043C151.696 15.7534 150.813 15.6086 149.854 15.6086C148.846 15.6086 147.905 15.7824 147.06 16.1106C146.216 16.4484 145.458 16.9503 144.834 17.6066C144.162 18.2822 143.654 19.0737 143.318 19.9617C142.972 20.84 142.8 21.8052 142.8 22.8283C142.8 23.8514 142.972 24.8166 143.318 25.6853C143.663 26.5636 144.172 27.3551 144.834 28.0307C145.458 28.6774 146.216 29.1793 147.07 29.5171C147.924 29.855 148.855 30.0287 149.863 30.0287C150.832 30.0287 151.725 29.8742 152.512 29.575C153.299 29.2758 154.047 28.7932 154.758 28.1369L154.94 27.9728L153.078 25.8204L152.876 26.0714Z" fill="white"/>
<path d="M170.247 23.4269C170.247 21.1007 169.585 19.1993 168.28 17.7805C166.965 16.352 165.228 15.6184 163.097 15.6184C161.014 15.6184 159.306 16.3037 158.011 17.6453C156.715 18.9869 156.062 20.7629 156.062 22.9249C156.062 23.8419 156.216 24.7299 156.533 25.5599C156.84 26.3997 157.3 27.1429 157.886 27.7799C158.548 28.5038 159.364 29.0636 160.285 29.4593C161.206 29.8454 162.224 30.0481 163.289 30.0481C164.575 30.0481 165.756 29.8068 166.782 29.3242C167.809 28.8416 168.769 28.0887 169.633 27.0753L169.796 26.8823L167.732 25.2125L167.579 25.3959C166.994 26.0715 166.332 26.5927 165.631 26.9402C164.93 27.2877 164.172 27.4614 163.356 27.4614C162.099 27.4614 161.044 27.1043 160.228 26.39C159.47 25.724 159.038 24.9036 158.922 23.8709H170.238V23.4269H170.247ZM160.247 19.1897C161.024 18.5237 161.974 18.1859 163.068 18.1859C164.143 18.1859 165.074 18.514 165.823 19.1703C166.504 19.7687 166.936 20.5409 167.118 21.4675H158.932C159.105 20.5602 159.546 19.7977 160.247 19.1897Z" fill="white"/>
<path d="M7.95202 29.479L2.91362 30.7723V7.68481L7.95202 8.98783V29.479Z" fill="white"/>
<path d="M32.2997 30.8299L27.2517 32.1233V6.33325L32.2997 7.63627V30.8299Z" fill="white"/>
<path d="M15.9464 30.1738L10.908 31.4768V17.8772L15.9464 19.1802V30.1738Z" fill="white"/>
<path d="M19.2381 15.8695L24.2862 14.5664V28.1661L19.2381 26.863V15.8695Z" fill="white"/>
</g>
<defs>
<clipPath id="clip0_1510_9742">
<rect width="170" height="40" fill="white" transform="translate(0.900024)"/>
</clipPath>
</defs>
</svg>
