<svg width="121" height="40" viewBox="0 0 121 40" fill="none" xmlns="http://www.w3.org/2000/svg">
<g clip-path="url(#clip0_1508_9711)">
<path d="M3.92995 23.7569C3.92995 25.1348 4.23277 26.194 4.62816 26.834C5.14652 27.6724 5.92009 28.0281 6.70822 28.0281C7.72511 28.0281 8.65472 27.7755 10.4478 25.2961C11.8839 23.3086 13.5765 20.5198 14.7151 18.7703L16.6431 15.8069C17.9826 13.7493 19.5324 11.4617 21.311 9.91186C22.7616 8.64637 24.3272 7.94287 25.9035 7.94287C28.5482 7.94287 31.0686 9.47548 32.9966 12.3503C35.1071 15.4988 36.1319 19.4645 36.1319 23.5572C36.1319 25.9903 35.6519 27.7782 34.836 29.1904C34.0479 30.5564 32.5113 31.9211 29.9261 31.9211V28.0268C32.1397 28.0268 32.6911 25.993 32.6911 23.6657C32.6911 20.3492 31.9176 16.6678 30.2144 14.0376C29.0057 12.1718 27.4387 11.0319 25.7144 11.0319C23.8499 11.0319 22.3503 12.4376 20.6643 14.9447C19.7678 16.2763 18.8474 17.9002 17.8147 19.7316L16.6774 21.7469C14.3924 25.7986 13.8132 26.7203 12.672 28.2436C10.67 30.9095 8.96018 31.9211 6.70954 31.9211C4.03971 31.9211 2.35106 30.7654 1.30508 29.0225C0.44952 27.6036 0.0303345 25.7404 0.0303345 23.6167L3.92995 23.7569Z" fill="white"/>
<path d="M3.1048 12.6265C4.89262 9.87076 7.47253 7.94409 10.432 7.94409C12.1457 7.94409 13.8489 8.45188 15.6275 9.90382C17.574 11.492 19.6474 14.1063 22.2353 18.4171L23.1636 19.9643C25.4036 23.696 26.6771 25.6147 27.4229 26.5205C28.3816 27.6829 29.0533 28.0293 29.9261 28.0293C32.1397 28.0293 32.6911 25.9955 32.6911 23.6682L36.1306 23.5598C36.1306 25.9929 35.6505 27.7807 34.8347 29.193C34.0465 30.559 32.51 31.9236 29.9248 31.9236C28.3181 31.9236 26.8939 31.5745 25.3203 30.0895C24.1104 28.9497 22.6955 26.9251 21.6072 25.1043L18.37 19.6958C16.7462 16.9811 15.2559 14.9579 14.3924 14.0415C13.4641 13.0563 12.2727 11.8662 10.3685 11.8662C8.82794 11.8662 7.52013 12.9466 6.42523 14.6008L3.1048 12.6265Z" fill="white"/>
<path d="M10.3685 11.8636C8.82795 11.8636 7.52014 12.944 6.42523 14.5983C4.87676 16.9349 3.92995 20.414 3.92995 23.7569C3.92995 25.1348 4.23277 26.194 4.62816 26.834L1.30376 29.0238C0.44952 27.6036 0.0303345 25.7404 0.0303345 23.6167C0.0303345 19.7568 1.08954 15.7329 3.1048 12.6253C4.89263 9.86954 7.47254 7.94287 10.432 7.94287L10.3685 11.8636Z" fill="white"/>
<path d="M43.7103 8.7019H48.2208L55.8905 22.576L63.5615 8.7019H67.9741V31.5006H64.294V14.027L57.5672 26.1265H54.1146L47.3891 14.027V31.4993H43.709V8.7019H43.7103ZM79.5037 17.202C76.8643 17.202 75.2762 19.1882 74.8953 21.6477H83.8516C83.6665 19.1141 82.2053 17.202 79.5037 17.202ZM71.247 23.0481C71.247 17.8737 74.5912 14.1077 79.5672 14.1077C84.4626 14.1077 87.385 17.8261 87.385 23.3245V24.3348H74.8953C75.3383 27.0099 77.1143 28.8122 79.9758 28.8122C82.2595 28.8122 83.6864 28.1154 85.0404 26.8406L86.9949 29.2341C85.1528 30.928 82.811 31.9039 79.8449 31.9039C74.4576 31.9066 71.247 27.9778 71.247 23.0481ZM91.8466 17.5286H88.46V14.5163H91.8466V9.53367H95.3971V14.5163H100.542V17.5286H95.3971V25.1652C95.3971 27.7729 96.2302 28.6985 98.2798 28.6985C99.2147 28.6985 99.7516 28.6179 100.544 28.4869V31.4675C99.5572 31.7465 98.6157 31.8748 97.5962 31.8748C93.764 31.8748 91.8479 29.7802 91.8479 25.5897L91.8466 17.5286ZM115.492 20.4589C114.779 18.6592 113.188 17.3329 110.85 17.3329C107.813 17.3329 105.868 19.4883 105.868 22.9992C105.868 26.4228 107.658 28.6827 110.705 28.6827C113.099 28.6827 114.809 27.2889 115.492 25.5553V20.4589ZM119.042 31.4993H115.558V29.1217C114.583 30.5221 112.811 31.9066 109.94 31.9066C105.323 31.9066 102.238 28.0413 102.238 22.9992C102.238 17.9094 105.398 14.1077 110.136 14.1077C112.479 14.1077 114.316 15.0439 115.558 16.6982V14.5163H119.042V31.4993Z" fill="white"/>
</g>
<defs>
<clipPath id="clip0_1508_9711">
<rect width="120.8" height="40" fill="white" transform="translate(0.100006)"/>
</clipPath>
</defs>
</svg>
