<svg width="24" height="24" viewBox="0 0 24 24" fill="none" xmlns="http://www.w3.org/2000/svg">
<g clip-path="url(#clip0_1886_4329)">
<path fill-rule="evenodd" clip-rule="evenodd" d="M12 0C10.0069 0 8.0667 0.182212 6.22212 0.387815C3.15708 0.729457 0.695762 3.18778 0.367068 6.26003C0.170692 8.0955 0 10.0218 0 12C0 13.9782 0.170692 15.9045 0.367068 17.74C0.695764 20.8123 3.15708 23.2705 6.22212 23.6122C8.0667 23.8177 10.0069 24 12 24C13.9931 24 15.9333 23.8177 17.7779 23.6122C20.843 23.2705 23.3041 20.8123 23.6329 17.74C23.8292 15.9045 24 13.9782 24 12C24 10.0218 23.8292 8.0955 23.6329 6.26003C23.3041 3.18778 20.843 0.729457 17.7779 0.387815C15.9333 0.182212 13.9931 0 12 0Z" fill="#E74694"/>
<path fill-rule="evenodd" clip-rule="evenodd" d="M12.0002 0C10.007 0 8.06685 0.182212 6.22225 0.387815C3.16811 0.728243 0.713414 3.17032 0.370789 6.22726H23.6295C23.2868 3.17032 20.8322 0.728243 17.778 0.387815C15.9335 0.182212 13.9933 0 12.0002 0Z" fill="#F6B7D5"/>
<path fill-rule="evenodd" clip-rule="evenodd" d="M7.58422 9.9358C7.08209 9.43367 6.26801 9.43367 5.76591 9.9358C5.26382 10.4378 5.26382 11.252 5.76591 11.7541L8.29147 14.2796L5.76591 16.8051C5.26382 17.3073 5.26382 18.1212 5.76591 18.6233C6.26801 19.1255 7.08209 19.1255 7.58422 18.6233L11.0188 15.1887C11.521 14.6866 11.521 13.8725 11.0188 13.3705L7.58422 9.9358ZM13.9628 12.9938C13.2528 12.9938 12.6772 13.5695 12.6772 14.2796C12.6772 14.9897 13.2528 15.5653 13.9628 15.5653H18.5424C19.2524 15.5653 19.828 14.9897 19.828 14.2796C19.828 13.5695 19.2524 12.9938 18.5424 12.9938H13.9628Z" fill="#F6B7D5"/>
</g>
<defs>
<clipPath id="clip0_1886_4329">
<rect width="24" height="24" fill="white"/>
</clipPath>
</defs>
</svg>
