<svg width="24" height="24" viewBox="0 0 24 24" fill="none" xmlns="http://www.w3.org/2000/svg">
<path fill-rule="evenodd" clip-rule="evenodd" d="M12.1235 1.79589C11.8509 2.12813 11.7018 2.54452 11.7016 2.97426V6.09846V7.02822V15.9563C10.8809 15.6002 9.92819 15.3965 8.91234 15.3965C5.83282 15.3965 3.3335 17.2689 3.3335 19.5806C3.3335 21.8923 5.83282 23.7647 8.91234 23.7647C11.7825 23.7647 14.1486 22.1383 14.4571 20.0456H14.491V19.614L14.4912 19.5806L14.491 19.5471V6.47034L20.9997 5.16861V1.85849C20.9995 1.58347 20.9383 1.31191 20.8206 1.06338C20.7028 0.814841 20.5314 0.595519 20.3187 0.42121C20.1059 0.246902 19.8572 0.121947 19.5904 0.0553483C19.3235 -0.0112503 19.0452 -0.0178347 18.7756 0.0360694L13.1967 1.15184C12.7753 1.23607 12.3961 1.46365 12.1235 1.79589Z" fill="url(#paint0_linear_2581_3516)"/>
<defs>
<linearGradient id="paint0_linear_2581_3516" x1="12.1666" y1="0" x2="12.1666" y2="23.7647" gradientUnits="userSpaceOnUse">
<stop stop-color="#BEFB11"/>
<stop offset="1" stop-color="#5CFB12"/>
</linearGradient>
</defs>
</svg>
