<svg width="3400" height="2270" viewBox="0 0 3400 2270" fill="none" xmlns="http://www.w3.org/2000/svg">
<g filter="url(#filter0_f_2813_19754)">
<path d="M1230.72 1439C1597.83 1439 1895.44 1302.89 1895.44 1135C1895.44 967.105 1597.83 831 1230.72 831C863.605 831 566 967.105 566 1135C566 1302.89 863.605 1439 1230.72 1439Z" fill="url(#paint0_linear_2813_19754)"/>
</g>
<g filter="url(#filter1_f_2813_19754)">
<path d="M1894.83 1730C2392.76 1730 2796.4 1498.31 2796.4 1212.5C2796.4 926.693 2392.76 695 1894.83 695C1396.91 695 993.259 926.693 993.259 1212.5C993.259 1498.31 1396.91 1730 1894.83 1730Z" fill="url(#paint1_linear_2813_19754)"/>
</g>
<defs>
<filter id="filter0_f_2813_19754" x="66" y="331" width="2329.44" height="1608" filterUnits="userSpaceOnUse" color-interpolation-filters="sRGB">
<feFlood flood-opacity="0" result="BackgroundImageFix"/>
<feBlend mode="normal" in="SourceGraphic" in2="BackgroundImageFix" result="shape"/>
<feGaussianBlur stdDeviation="250" result="effect1_foregroundBlur_2813_19754"/>
</filter>
<filter id="filter1_f_2813_19754" x="493.259" y="195" width="2803.15" height="2035" filterUnits="userSpaceOnUse" color-interpolation-filters="sRGB">
<feFlood flood-opacity="0" result="BackgroundImageFix"/>
<feBlend mode="normal" in="SourceGraphic" in2="BackgroundImageFix" result="shape"/>
<feGaussianBlur stdDeviation="250" result="effect1_foregroundBlur_2813_19754"/>
</filter>
<linearGradient id="paint0_linear_2813_19754" x1="566" y1="1135" x2="1895.44" y2="1135" gradientUnits="userSpaceOnUse">
<stop stop-color="#A718FF"/>
<stop offset="0.68" stop-color="#1BFFF0"/>
</linearGradient>
<linearGradient id="paint1_linear_2813_19754" x1="993.259" y1="1212.5" x2="2796.4" y2="1212.5" gradientUnits="userSpaceOnUse">
<stop stop-color="#2FDAFF"/>
<stop offset="1" stop-color="#21BCFF"/>
</linearGradient>
</defs>
</svg>
