<svg width="24" height="24" viewBox="0 0 24 24" fill="none" xmlns="http://www.w3.org/2000/svg">
<g clip-path="url(#clip0_1759_12445)">
<path fill-rule="evenodd" clip-rule="evenodd" d="M12 0.8573C9.58283 0.8573 7.22326 0.932397 4.94542 1.07537C2.86172 1.20615 1.20596 2.8619 1.07519 4.9456C0.932214 7.22344 0.857117 9.58304 0.857117 12.0001C0.857117 14.4173 0.932214 16.7769 1.07519 19.0548C1.20596 21.1385 2.86172 22.7941 4.94542 22.9249C7.22326 23.068 9.58283 23.143 12 23.143C14.4171 23.143 16.7767 23.068 19.0546 22.9249C21.1383 22.7941 22.794 21.1385 22.9248 19.0548C23.0678 16.7769 23.1428 14.4173 23.1428 12.0001C23.1428 9.58304 23.0678 7.22344 22.9248 4.9456C22.794 2.8619 21.1383 1.20615 19.0546 1.07537C16.7767 0.932397 14.4171 0.8573 12 0.8573Z" fill="#C4AAF0"/>
<path fill-rule="evenodd" clip-rule="evenodd" d="M0.908433 8.55664C0.874533 9.68922 0.857178 10.8378 0.857178 11.9997C0.857178 12.7899 0.865203 13.5739 0.881005 14.3509H7.10558V8.76552C7.10558 8.69404 7.11257 8.62414 7.12593 8.55664H0.908433ZM9.22806 8.55664C9.24141 8.62414 9.24846 8.69404 9.24846 8.76552V14.3509H23.119C23.1349 13.5739 23.1429 12.7899 23.1429 11.9997C23.1429 10.8378 23.1256 9.68922 23.0917 8.55664H9.22806ZM9.24846 16.4938H23.0553C23.0214 17.3577 22.9777 18.2115 22.9249 19.0542C22.7941 21.138 21.1384 22.7937 19.0546 22.9245C16.7767 23.0674 14.4172 23.1425 12.0001 23.1425C11.0543 23.1425 10.1173 23.131 9.19071 23.1084C9.22814 22.9994 9.24846 22.8822 9.24846 22.7606V16.4938ZM0.9448 16.4938H7.10558V22.7606C7.10558 22.8573 7.11839 22.951 7.14239 23.04C6.40232 23.0085 5.66978 22.9698 4.94548 22.9245C2.86178 22.7937 1.20603 21.138 1.07525 19.0542C1.02235 18.2115 0.978753 17.3577 0.9448 16.4938Z" fill="#6C2BD9"/>
</g>
<defs>
<clipPath id="clip0_1759_12445">
<rect width="24" height="24" fill="white"/>
</clipPath>
</defs>
</svg>
