<svg width="20" height="20" viewBox="0 0 20 20" fill="none" xmlns="http://www.w3.org/2000/svg">
<g clip-path="url(#clip0_1_22047)">
<path d="M4.34914 12.5711C4.34914 13.6981 3.42851 14.6187 2.30153 14.6187C1.17454 14.6187 0.253906 13.6981 0.253906 12.5711C0.253906 11.4441 1.17454 10.5235 2.30153 10.5235H4.34914V12.5711Z" fill="#E01E5A"/>
<path d="M5.38086 12.5711C5.38086 11.4441 6.30149 10.5235 7.42848 10.5235C8.55546 10.5235 9.4761 11.4441 9.4761 12.5711V17.6981C9.4761 18.8251 8.55546 19.7457 7.42848 19.7457C6.30149 19.7457 5.38086 18.8251 5.38086 17.6981V12.5711Z" fill="#E01E5A"/>
<path d="M7.42848 4.34914C6.30149 4.34914 5.38086 3.42851 5.38086 2.30153C5.38086 1.17454 6.30149 0.253906 7.42848 0.253906C8.55546 0.253906 9.4761 1.17454 9.4761 2.30153V4.34914H7.42848Z" fill="#36C5F0"/>
<path d="M7.42851 5.38086C8.55549 5.38086 9.47613 6.30149 9.47613 7.42848C9.47613 8.55546 8.55549 9.4761 7.42851 9.4761H2.30153C1.17454 9.4761 0.253906 8.55546 0.253906 7.42848C0.253906 6.30149 1.17454 5.38086 2.30153 5.38086H7.42851Z" fill="#36C5F0"/>
<path d="M15.6505 7.42848C15.6505 6.30149 16.5711 5.38086 17.6981 5.38086C18.8251 5.38086 19.7457 6.30149 19.7457 7.42848C19.7457 8.55546 18.8251 9.4761 17.6981 9.4761H15.6505V7.42848Z" fill="#2EB67D"/>
<path d="M14.6187 7.42851C14.6187 8.55549 13.6981 9.47613 12.5711 9.47613C11.4441 9.47613 10.5235 8.55549 10.5235 7.42851V2.30153C10.5235 1.17454 11.4441 0.253906 12.5711 0.253906C13.6981 0.253906 14.6187 1.17454 14.6187 2.30153V7.42851Z" fill="#2EB67D"/>
<path d="M12.5711 15.6505C13.6981 15.6505 14.6187 16.5711 14.6187 17.6981C14.6187 18.8251 13.6981 19.7457 12.5711 19.7457C11.4441 19.7457 10.5235 18.8251 10.5235 17.6981V15.6505H12.5711Z" fill="#ECB22E"/>
<path d="M12.5711 14.6187C11.4441 14.6187 10.5235 13.6981 10.5235 12.5711C10.5235 11.4441 11.4441 10.5235 12.5711 10.5235H17.6981C18.8251 10.5235 19.7457 11.4441 19.7457 12.5711C19.7457 13.6981 18.8251 14.6187 17.6981 14.6187H12.5711Z" fill="#ECB22E"/>
</g>
<defs>
<clipPath id="clip0_1_22047">
<rect width="20" height="20" rx="5.71429" fill="white"/>
</clipPath>
</defs>
</svg>
