<svg width="33" height="32" viewBox="0 0 33 32" fill="none" xmlns="http://www.w3.org/2000/svg">
<path d="M9.94034 20.147C11.0038 18.2328 11.8701 16.6734 12.7057 15.1694" stroke="#30F3FF" stroke-width="3" stroke-linecap="round" stroke-linejoin="round"/>
<path d="M13.0744 8.53317C13.0744 6.70052 14.56 5.21484 16.3927 5.21484C18.2254 5.21484 19.711 6.70052 19.711 8.53317C19.711 10.3659 18.2254 11.8516 16.3927 11.8516C14.56 11.8516 13.0744 10.3659 13.0744 8.53317Z" stroke="#30F3FF" stroke-width="3" stroke-linecap="round" stroke-linejoin="round"/>
<path d="M4.77823 23.4668C4.77823 21.6342 6.2639 20.1484 8.09662 20.1484C9.92927 20.1484 11.4149 21.6342 11.4149 23.4668C11.4149 25.2995 9.92927 26.7852 8.09662 26.7852C6.2639 26.7852 4.77823 25.2995 4.77823 23.4668Z" stroke="#30F3FF" stroke-width="3" stroke-linecap="round" stroke-linejoin="round"/>
<path d="M21.3703 23.4668C21.3703 21.6342 22.856 20.1484 24.6886 20.1484C26.5213 20.1484 28.007 21.6342 28.007 23.4668C28.007 25.2995 26.5213 26.7852 24.6886 26.7852C22.856 26.7852 21.3703 25.2995 21.3703 23.4668Z" stroke="#30F3FF" stroke-width="3" stroke-linecap="round" stroke-linejoin="round"/>
<path d="M21.4999 17L18.2362 11.8499" stroke="#30F3FF" stroke-width="3" stroke-linecap="round" stroke-linejoin="round"/>
<path d="M15.5627 23.4644H20.5402" stroke="#30F3FF" stroke-width="3" stroke-linecap="round" stroke-linejoin="round"/>
</svg>
