<svg width="3400" height="2270" viewBox="0 0 3400 2270" fill="none" xmlns="http://www.w3.org/2000/svg">
<g filter="url(#filter0_f_2813_19765)">
<path d="M1230.72 1439C1597.83 1439 1895.44 1302.89 1895.44 1135C1895.44 967.105 1597.83 831 1230.72 831C863.605 831 566 967.105 566 1135C566 1302.89 863.605 1439 1230.72 1439Z" fill="url(#paint0_linear_2813_19765)"/>
</g>
<g filter="url(#filter1_f_2813_19765)">
<path d="M1894.57 1730C2392.5 1730 2796.15 1498.31 2796.15 1212.5C2796.15 926.693 2392.5 695 1894.57 695C1396.65 695 993 926.693 993 1212.5C993 1498.31 1396.65 1730 1894.57 1730Z" fill="url(#paint1_linear_2813_19765)"/>
</g>
<defs>
<filter id="filter0_f_2813_19765" x="66" y="331" width="2329.44" height="1608" filterUnits="userSpaceOnUse" color-interpolation-filters="sRGB">
<feFlood flood-opacity="0" result="BackgroundImageFix"/>
<feBlend mode="normal" in="SourceGraphic" in2="BackgroundImageFix" result="shape"/>
<feGaussianBlur stdDeviation="250" result="effect1_foregroundBlur_2813_19765"/>
</filter>
<filter id="filter1_f_2813_19765" x="493" y="195" width="2803.15" height="2035" filterUnits="userSpaceOnUse" color-interpolation-filters="sRGB">
<feFlood flood-opacity="0" result="BackgroundImageFix"/>
<feBlend mode="normal" in="SourceGraphic" in2="BackgroundImageFix" result="shape"/>
<feGaussianBlur stdDeviation="250" result="effect1_foregroundBlur_2813_19765"/>
</filter>
<linearGradient id="paint0_linear_2813_19765" x1="566" y1="1135" x2="1895.44" y2="1135" gradientUnits="userSpaceOnUse">
<stop stop-color="#1BC8FF"/>
<stop offset="1" stop-color="#18ACFF"/>
</linearGradient>
<linearGradient id="paint1_linear_2813_19765" x1="993" y1="1212.5" x2="2796.15" y2="1212.5" gradientUnits="userSpaceOnUse">
<stop stop-color="#2496FF"/>
<stop offset="1" stop-color="#90FF21"/>
</linearGradient>
</defs>
</svg>
