<svg width="3400" height="2270" viewBox="0 0 3400 2270" fill="none" xmlns="http://www.w3.org/2000/svg">
<g filter="url(#filter0_f_2803_19716)">
<path d="M1268.31 1403C1635.43 1403 1933.03 1266.89 1933.03 1099C1933.03 931.105 1635.43 795 1268.31 795C901.201 795 603.596 931.105 603.596 1099C603.596 1266.89 901.201 1403 1268.31 1403Z" fill="url(#paint0_linear_2803_19716)"/>
</g>
<g filter="url(#filter1_f_2803_19716)">
<path d="M1894.83 1730C2392.76 1730 2796.4 1498.31 2796.4 1212.5C2796.4 926.693 2392.76 695 1894.83 695C1396.91 695 993.259 926.693 993.259 1212.5C993.259 1498.31 1396.91 1730 1894.83 1730Z" fill="url(#paint1_linear_2803_19716)"/>
</g>
<defs>
<filter id="filter0_f_2803_19716" x="103.596" y="295" width="2329.44" height="1608" filterUnits="userSpaceOnUse" color-interpolation-filters="sRGB">
<feFlood flood-opacity="0" result="BackgroundImageFix"/>
<feBlend mode="normal" in="SourceGraphic" in2="BackgroundImageFix" result="shape"/>
<feGaussianBlur stdDeviation="250" result="effect1_foregroundBlur_2803_19716"/>
</filter>
<filter id="filter1_f_2803_19716" x="493.259" y="195" width="2803.15" height="2035" filterUnits="userSpaceOnUse" color-interpolation-filters="sRGB">
<feFlood flood-opacity="0" result="BackgroundImageFix"/>
<feBlend mode="normal" in="SourceGraphic" in2="BackgroundImageFix" result="shape"/>
<feGaussianBlur stdDeviation="250" result="effect1_foregroundBlur_2803_19716"/>
</filter>
<linearGradient id="paint0_linear_2803_19716" x1="603.596" y1="1099" x2="1933.03" y2="1099" gradientUnits="userSpaceOnUse">
<stop stop-color="#DFFF1B"/>
<stop offset="1" stop-color="#FF18CC"/>
</linearGradient>
<linearGradient id="paint1_linear_2803_19716" x1="993.259" y1="1212.5" x2="2796.4" y2="1212.5" gradientUnits="userSpaceOnUse">
<stop stop-color="#B42121"/>
<stop offset="1" stop-color="#FF21A6"/>
</linearGradient>
</defs>
</svg>
