<svg width="194" height="40" viewBox="0 0 194 40" fill="none" xmlns="http://www.w3.org/2000/svg">
<g clip-path="url(#clip0_1512_9757)">
<path d="M137.023 25.0219V23.7979H134.836C133.317 23.7979 132.726 24.0504 132.726 25.0818C132.726 25.8864 133.253 26.1817 134.335 26.1817C135.684 26.1817 136.655 25.7024 137.023 25.0518V25.0219ZM140.819 20.28V28.8137H137.395L137.074 27.4998C136.595 28.2873 135.363 29.0448 133.257 29.0448C130.565 29.0448 129.042 27.8294 129.042 25.223C129.042 22.3514 130.753 21.3114 134.177 21.3114H137.036V21.2387C137.036 19.7665 136.608 19.3727 134.528 19.3727C133.486 19.3721 132.445 19.4422 131.412 19.5824V16.3898C132.606 16.2551 133.806 16.1865 135.007 16.1844C139.219 16.1844 140.785 17.5496 140.785 20.28H140.819ZM63.7851 21.2044L61.9234 15.1487H61.6452L59.7365 21.2044H63.7851ZM64.8935 24.7694H58.6409L57.357 28.7923H53.1929L59.1074 11.3612H64.5169L70.3843 28.7923H66.1303L64.8935 24.7694ZM123.405 22.6296C123.405 20.464 123.084 18.9662 121.06 18.9662C119.036 18.9662 118.552 20.28 118.552 22.6552C118.552 24.885 119.031 26.2673 121.06 26.2673C123.089 26.2673 123.405 24.6538 123.405 22.6296ZM127.295 22.6296C127.295 26.2416 126.371 29.0491 122.395 29.0491C120.05 29.0491 119.126 28.3386 118.668 27.2302L118.437 28.8094H114.936V11.3227H118.757V17.648C119.284 16.9119 120.277 16.1715 122.395 16.1715C126.375 16.1715 127.295 18.6024 127.295 22.591V22.6296ZM107.947 25.0476V23.8236H105.782C104.262 23.8236 103.672 24.0761 103.672 25.1075C103.672 25.9078 104.198 26.2074 105.285 26.2074C106.612 26.2074 107.579 25.728 107.947 25.0775V25.0476ZM111.743 20.3057V28.8394H108.319L107.998 27.5255C107.515 28.313 106.287 29.0705 104.177 29.0705C101.485 29.0705 99.9611 27.855 99.9611 25.2487C99.9611 22.3771 101.673 21.3371 105.097 21.3371H107.947V21.2643C107.947 19.7921 107.519 19.3984 105.439 19.3984C104.398 19.395 103.359 19.4651 102.328 19.6081V16.4155C103.521 16.2807 104.722 16.2121 105.923 16.2101C110.164 16.2101 111.726 17.5753 111.726 20.3057H111.743ZM94.3034 22.6296C94.3034 20.4897 93.9824 18.9704 91.9582 18.9704C89.9339 18.9704 89.446 20.2843 89.446 22.6296C89.446 24.8636 89.9296 26.2459 91.9539 26.2459C93.9782 26.2459 94.3077 24.6325 94.3077 22.6039L94.3034 22.6296ZM98.1936 22.6296C98.1936 26.2459 97.2692 29.0747 93.2934 29.0747C90.9482 29.0747 90.0237 28.36 89.5658 27.2559L89.3347 28.8351H85.8382V11.3269H89.6557V17.6523C90.1821 16.9205 91.175 16.1801 93.2934 16.1801C97.2735 16.1801 98.1936 18.5981 98.1936 22.5996V22.6296ZM79.0079 16.424H82.8296V28.8351H79.0079V16.424ZM78.8238 12.9233C78.8238 11.1258 79.1919 10.9888 80.9337 10.9888C82.6756 10.9888 83.0436 11.1258 83.0436 12.9233C83.0436 14.7207 82.697 14.9005 80.9337 14.9005C79.1705 14.9005 78.8281 14.6694 78.8281 12.8976L78.8238 12.9233ZM72.1989 11.3483H76.0506V28.8351H72.1989V11.3483ZM191.991 17.2843C192.692 18.1199 193.047 19.1914 192.984 20.28V28.8222H191.007V20.9519C191.07 20.1597 190.886 19.3674 190.48 18.6837C190.256 18.4135 189.968 18.2034 189.642 18.0727C189.317 17.9419 188.963 17.8945 188.615 17.9348C187.907 17.9081 187.205 18.0706 186.582 18.4055C185.974 18.7983 185.542 19.4122 185.379 20.1174V28.8222H183.402V20.9519C183.459 20.1597 183.287 19.3677 182.905 18.6709C182.697 18.4144 182.429 18.2133 182.124 18.0856C181.82 17.9579 181.488 17.9076 181.159 17.939C180.442 17.9018 179.727 18.0601 179.092 18.397C178.471 18.8206 178.027 19.4569 177.843 20.1859V28.8222H175.887V16.4112H177.864V18.046C178.161 17.4104 178.669 16.8975 179.302 16.5952C179.976 16.3009 180.706 16.155 181.442 16.1673C183.282 16.1673 184.489 16.8477 185.058 18.1958C185.67 16.8477 186.963 16.1673 188.91 16.1673C190.284 16.1673 191.315 16.5353 191.974 17.2628L191.991 17.2843ZM169.279 26.768C169.814 26.4542 170.205 25.9423 170.366 25.3429C170.609 24.4219 170.716 23.4702 170.683 22.5183C170.714 21.5651 170.6 20.6127 170.345 19.6937C170.174 19.0871 169.775 18.5701 169.232 18.2515C168.577 17.9313 167.85 17.784 167.122 17.8235C166.384 17.7802 165.647 17.9276 164.982 18.2515C164.448 18.5711 164.059 19.0848 163.895 19.6851C163.646 20.6095 163.536 21.5658 163.57 22.5226C163.535 23.4731 163.649 24.4234 163.908 25.3386C164.081 25.9403 164.478 26.4531 165.016 26.7723C165.672 27.0924 166.398 27.2397 167.126 27.2003C167.88 27.2486 168.633 27.1012 169.313 26.7723L169.279 26.768ZM164.006 28.2616C163.157 27.8554 162.485 27.152 162.119 26.2844C161.254 23.8496 161.254 21.1913 162.119 18.7565C162.485 17.8888 163.157 17.1854 164.006 16.7792C164.988 16.3535 166.053 16.1518 167.122 16.1886C168.193 16.1481 169.26 16.3499 170.242 16.7792C171.08 17.194 171.742 17.8955 172.108 18.7565C172.966 21.1925 172.966 23.8484 172.108 26.2844C171.742 27.1454 171.08 27.8468 170.242 28.2616C169.26 28.6933 168.193 28.8953 167.122 28.8522C166.053 28.881 164.991 28.6689 164.015 28.2316L164.006 28.2616ZM152.777 28.2616C151.928 27.853 151.256 27.1506 150.885 26.2844C150.027 23.8484 150.027 21.1925 150.885 18.7565C151.256 17.8903 151.928 17.1878 152.777 16.7792C153.758 16.3535 154.823 16.1518 155.892 16.1886C156.972 16.1678 158.049 16.321 159.081 16.6423V18.4312C158.067 18.0641 156.995 17.8857 155.918 17.9048C155.18 17.8714 154.446 18.0183 153.778 18.3328C153.237 18.6472 152.839 19.1598 152.67 19.7622C152.411 20.6746 152.297 21.6219 152.332 22.5696C152.297 23.5089 152.411 24.4478 152.67 25.3514C152.841 25.9463 153.239 26.4503 153.778 26.7552C154.458 27.0619 155.202 27.2013 155.948 27.1617C157.026 27.192 158.1 27.0132 159.11 26.6353V28.4242C158.638 28.5736 158.152 28.6796 157.66 28.7409C157.067 28.8297 156.47 28.8754 155.871 28.8779C154.809 28.9108 153.753 28.7061 152.781 28.2787L152.777 28.2616ZM145.214 28.7409C145.108 28.7111 145.009 28.6569 144.927 28.5827C144.844 28.5084 144.78 28.4161 144.739 28.313C144.629 27.9809 144.587 27.6302 144.615 27.2816C144.586 27.0675 144.599 26.8497 144.655 26.641C144.711 26.4323 144.808 26.2368 144.941 26.0661C145.32 25.8824 145.736 25.7869 146.158 25.7869C146.58 25.7869 146.996 25.8824 147.376 26.0661C147.508 26.2368 147.605 26.4323 147.661 26.641C147.717 26.8497 147.73 27.0675 147.701 27.2816C147.733 27.5017 147.721 27.7261 147.665 27.9415C147.609 28.1568 147.511 28.3588 147.376 28.5355C147.018 28.7734 146.587 28.8765 146.16 28.8265C145.842 28.8383 145.524 28.7993 145.219 28.711L145.214 28.7409ZM31.5506 29.1689C29.4407 29.263 29.6761 28.176 30.8958 26.4984C33.7546 22.6467 39.1727 17.3228 39.331 13.5395C39.6905 8.61792 34.7175 6.98736 29.6076 7.03443C26.2785 7.16831 22.9919 7.8314 19.8714 8.9988C11.2007 12.0502 5.74843 16.9462 2.32469 22.3642C-1.31303 27.7352 -0.114719 32.858 7.55445 33.0334C13.4347 32.7981 17.2565 31.1675 21.2494 29.1261C21.2494 29.1261 10.2293 32.2888 6.16785 29.9606C5.88679 29.8229 5.64701 29.6135 5.4727 29.3535C5.29838 29.0935 5.19568 28.7922 5.17496 28.4799C5.17496 26.5626 8.33763 24.5725 10.1223 23.9349V20.6138C12.0778 21.371 14.2007 21.5894 16.2694 21.2461C18.3381 20.9028 20.2767 20.0105 21.8828 18.6623C21.9611 18.9769 21.9843 19.3027 21.9513 19.6252H22.7516C22.8092 19.0881 22.6775 18.5478 22.3792 18.0974C22.166 17.7619 21.874 17.4835 21.5287 17.2866C21.1833 17.0897 20.7951 16.9802 20.3978 16.9676C20.8653 17.193 21.262 17.5423 21.5447 17.9776C20.1641 19.1345 18.5148 19.9258 16.7484 20.2787C14.9821 20.6317 13.1553 20.535 11.4361 19.9976L14.0724 17.3955L13.3449 15.5039C18.8316 13.4814 24.4934 11.9699 30.2581 10.9888L28.6404 9.66643L29.4963 9.14003C33.8488 10.3469 36.7204 11.2499 36.545 13.5609C36.4565 14.0175 36.3128 14.4615 36.117 14.8834C34.8331 17.3912 31.0798 21.5768 29.5563 23.3186C28.5817 24.3856 27.6795 25.5165 26.8558 26.7038C26.1714 27.5986 25.7585 28.6711 25.666 29.7937C25.7559 37.3902 48.0573 26.2459 52.3669 23.2886C45.9988 25.9977 39.1299 28.6553 31.5549 29.1432L31.5506 29.1689Z" fill="white"/>
</g>
<defs>
<clipPath id="clip0_1512_9757">
<rect width="193" height="40" fill="white" transform="translate(0.900024)"/>
</clipPath>
</defs>
</svg>
