<svg width="121" height="40" viewBox="0 0 121 40" fill="none" xmlns="http://www.w3.org/2000/svg">
<path d="M31.1384 16.446H18.6184V20.161H27.4984C27.0584 25.361 22.7254 27.593 18.6334 27.593C17.337 27.5987 16.0526 27.3461 14.8549 26.8499C13.6573 26.3537 12.5705 25.624 11.658 24.7032C10.7455 23.7824 10.0256 22.689 9.54027 21.487C9.05495 20.2849 8.81396 18.9982 8.83137 17.702C8.83137 12.078 13.1854 7.74797 18.6454 7.74797C22.8574 7.74797 25.3394 10.433 25.3394 10.433L27.9394 7.73897C27.9394 7.73897 24.5994 4.02197 18.5094 4.02197C10.7544 4.02197 4.75537 10.567 4.75537 17.636C4.75537 24.563 10.3984 31.318 18.7054 31.318C26.0124 31.318 31.3614 26.312 31.3614 18.91C31.3614 17.348 31.1344 16.446 31.1344 16.446H31.1384Z" fill="white"/>
<path d="M41.3954 13.7549C36.2574 13.7549 32.5754 17.7719 32.5754 22.4549C32.5754 27.2089 36.1454 31.2999 41.4554 31.2999C46.2614 31.2999 50.1984 27.6269 50.1984 22.5569C50.1984 16.7569 45.6184 13.7539 41.3954 13.7539V13.7549ZM41.4454 17.2009C43.9714 17.2009 46.3654 19.2439 46.3654 22.5349C46.3654 25.7549 43.9814 27.8569 41.4334 27.8569C38.6334 27.8569 36.4334 25.6149 36.4334 22.5089C36.4334 19.4689 38.6134 17.2009 41.4534 17.2009H41.4454Z" fill="white"/>
<path d="M60.5764 13.7549C55.4384 13.7549 51.7564 17.7719 51.7564 22.4549C51.7564 27.2089 55.3264 31.2999 60.6364 31.2999C65.4424 31.2999 69.3794 27.6269 69.3794 22.5569C69.3794 16.7569 64.7994 13.7539 60.5764 13.7539V13.7549ZM60.6264 17.2009C63.1524 17.2009 65.5464 19.2439 65.5464 22.5349C65.5464 25.7549 63.1624 27.8569 60.6144 27.8569C57.8144 27.8569 55.6144 25.6149 55.6144 22.5089C55.6144 19.4689 57.7944 17.2009 60.6344 17.2009H60.6264Z" fill="white"/>
<path d="M79.3894 13.7649C74.6734 13.7649 70.9674 17.8949 70.9674 22.5309C70.9674 27.8109 75.2644 31.3129 79.3074 31.3129C81.8074 31.3129 83.1374 30.3199 84.1074 29.1809V30.9109C84.1074 33.9379 82.2694 35.7509 79.4954 35.7509C76.8154 35.7509 75.4714 33.7579 74.9954 32.6279L71.6234 34.0279C72.8194 36.5579 75.2274 39.1949 79.5234 39.1949C84.2234 39.1949 87.7854 36.2419 87.7854 30.0479V14.2919H84.1214V15.7779C82.9914 14.5579 81.4434 13.7649 79.3914 13.7649H79.3894ZM79.7294 17.2049C82.0414 17.2049 84.4154 19.1789 84.4154 22.5499C84.4154 25.9769 82.0454 27.8649 79.6784 27.8649C77.1644 27.8649 74.8254 25.8249 74.8254 22.5819C74.8254 19.2139 77.2554 17.2049 79.7294 17.2049Z" fill="white"/>
<path d="M104.161 13.7439C99.7134 13.7439 95.9784 17.2839 95.9784 22.5039C95.9784 28.0299 100.141 31.3069 104.578 31.3069C108.29 31.3069 110.578 29.2769 111.928 27.4569L108.895 25.4389C108.108 26.6589 106.792 27.8539 104.597 27.8539C102.131 27.8539 100.997 26.5039 100.294 25.1939L112.057 20.3139L111.457 18.8839C110.321 16.0839 107.669 13.7439 104.161 13.7439ZM104.314 17.1179C105.917 17.1179 107.07 17.9699 107.56 18.9919L99.7044 22.2749C99.3644 19.7329 101.774 17.1179 104.304 17.1179H104.314Z" fill="white"/>
<path d="M90.3614 30.7869H94.2254V4.92993H90.3614V30.7869Z" fill="white"/>
</svg>
